<svg width="30" height="30" viewBox="0 0 30 30" fill="none" xmlns="http://www.w3.org/2000/svg">
<path d="M21.25 12.5H20C19.0111 12.5 18.0444 12.2068 17.2222 11.6574C16.3999 11.1079 15.759 10.327 15.3806 9.41342C15.0022 8.49979 14.9031 7.49446 15.0961 6.52455C15.289 5.55465 15.7652 4.66373 16.4645 3.96447C17.1637 3.26521 18.0546 2.789 19.0246 2.59608C19.9945 2.40315 20.9998 2.50217 21.9134 2.8806C22.827 3.25904 23.6079 3.89991 24.1574 4.72215C24.7068 5.5444 25 6.5111 25 7.5V8.1675" stroke="black" stroke-width="2" stroke-linecap="round" stroke-linejoin="round"/>
<path d="M21.2501 7.4999H22.5001C23.67 7.49949 24.803 7.90931 25.7019 8.65803C26.6008 9.40675 27.2087 10.447 27.4198 11.5976C27.6309 12.7483 27.4318 13.9366 26.8573 14.9556C26.2827 15.9747 25.369 16.76 24.2751 17.1749L21.4126 18.2624C19.6746 18.9239 17.7529 18.9161 16.0203 18.2405C14.2878 17.565 12.8679 16.2698 12.0364 14.6065C11.2049 12.9431 11.021 11.0302 11.5204 9.2389C12.0197 7.44759 13.1668 5.90568 14.7389 4.9124L17.3251 3.2749" stroke="black" stroke-width="2" stroke-linecap="round" stroke-linejoin="round"/>
<path d="M5.625 21.2502C9.125 20.6252 11.125 21.2502 12.5 22.2502C13.875 23.2502 14.75 25.0002 15.375 26.8752C12.875 27.3752 11 27.3752 9.375 26.5002C7.875 25.7502 6.5 24.1252 5.625 21.2502Z" stroke="black" stroke-width="2" stroke-linecap="round" stroke-linejoin="round"/>
<path d="M12.2125 15C5 18.75 2.5 27.5 2.5 27.5" stroke="black" stroke-width="2" stroke-linecap="round" stroke-linejoin="round"/>
<path d="M21.25 12.5C22.6307 12.5 23.75 11.3807 23.75 10C23.75 8.61929 22.6307 7.5 21.25 7.5C19.8693 7.5 18.75 8.61929 18.75 10C18.75 11.3807 19.8693 12.5 21.25 12.5Z" stroke="black" stroke-width="2" stroke-linecap="round" stroke-linejoin="round"/>
</svg>
