<svg width="30" height="30" viewBox="0 0 30 30" fill="none" xmlns="http://www.w3.org/2000/svg">
<path d="M15.5113 7.27979C14.6338 8.26979 14.0738 9.14978 13.7425 9.98729L16.4338 12.6823C16.5509 12.7995 16.6168 12.9584 16.6168 13.1242C16.6168 13.2899 16.5509 13.4488 16.4338 13.566L13.5675 16.4323C13.4503 16.5495 13.3845 16.7084 13.3845 16.8742C13.3845 17.0399 13.4503 17.1988 13.5675 17.316L15 18.7498" stroke="black" stroke-width="2" stroke-linecap="round" stroke-linejoin="round"/>
<path d="M16.885 25.3914C16.6521 25.6589 16.3649 25.8738 16.0426 26.0218C15.7202 26.1698 15.3701 26.2475 15.0154 26.2497C14.6607 26.252 14.3096 26.1787 13.9854 26.0348C13.6612 25.8909 13.3713 25.6797 13.135 25.4151L6.25 18.7501C4.375 16.8751 2.5 14.7501 2.5 11.8751C2.49977 10.484 2.92156 9.1256 3.70964 7.97925C4.49771 6.83291 5.61501 5.9526 6.91393 5.45462C8.21285 4.95664 9.63227 4.86442 10.9847 5.19013C12.3371 5.51584 13.559 6.24417 14.4887 7.2789C14.6274 7.40841 14.81 7.48055 14.9998 7.48078C15.1895 7.48101 15.3723 7.40932 15.5113 7.28015C16.441 6.2455 17.6627 5.5172 19.015 5.19145C20.3673 4.8657 21.7866 4.95782 23.0855 5.45565C24.3844 5.95347 25.5017 6.83358 26.2898 7.97973C27.078 9.12588 27.5 10.4842 27.5 11.8751C27.5 14.7376 25.625 16.8751 23.75 18.7501L16.885 25.3914Z" stroke="black" stroke-width="2" stroke-linecap="round" stroke-linejoin="round"/>
</svg>
