<svg width="30" height="30" viewBox="0 0 30 30" fill="none" xmlns="http://www.w3.org/2000/svg">
<path d="M2.5 11.8752C2.50003 10.4842 2.92199 9.1259 3.71017 7.97975C4.49834 6.8336 5.61565 5.9535 6.91451 5.45567C8.21338 4.95785 9.6327 4.86573 10.985 5.19148C12.3373 5.51723 13.559 6.24552 14.4887 7.28017C14.5542 7.35019 14.6334 7.40601 14.7213 7.44417C14.8093 7.48234 14.9041 7.50203 15 7.50203C15.0959 7.50203 15.1907 7.48234 15.2787 7.44417C15.3666 7.40601 15.4458 7.35019 15.5113 7.28017C16.438 6.2388 17.66 5.50438 19.0145 5.17467C20.3691 4.84497 21.7919 4.93561 23.0936 5.43453C24.3953 5.93345 25.5142 6.81699 26.3014 7.96755C27.0886 9.11811 27.5066 10.4811 27.5 11.8752C27.5 14.7377 25.625 16.8752 23.75 18.7502L16.885 25.3914C16.6521 25.6589 16.3649 25.8738 16.0426 26.0218C15.7202 26.1698 15.3701 26.2475 15.0154 26.2497C14.6607 26.252 14.3096 26.1787 13.9854 26.0348C13.6612 25.8909 13.3713 25.6797 13.135 25.4152L6.25 18.7502C4.375 16.8752 2.5 14.7502 2.5 11.8752Z" stroke="black" stroke-width="2" stroke-linecap="round" stroke-linejoin="round"/>
</svg>
