<svg width="30" height="30" viewBox="0 0 30 30" fill="none" xmlns="http://www.w3.org/2000/svg">
<path d="M5.00007 20V17.025C5.00007 14.375 3.71257 13.125 3.75007 10C3.78757 6.6 5.61257 2.5 9.37507 2.5C11.7126 2.5 12.5001 4.75 12.5001 6.875C12.5001 10.7625 10.0001 13.95 10.0001 17.725V20C10.0001 20.663 9.73668 21.2989 9.26784 21.7678C8.799 22.2366 8.16311 22.5 7.50007 22.5C6.83703 22.5 6.20114 22.2366 5.7323 21.7678C5.26346 21.2989 5.00007 20.663 5.00007 20Z" stroke="black" stroke-width="2" stroke-linecap="round" stroke-linejoin="round"/>
<path d="M25 25V22.025C25 19.375 26.2875 18.125 26.25 15C26.2125 11.6 24.3875 7.5 20.625 7.5C18.2875 7.5 17.5 9.75 17.5 11.875C17.5 15.7625 20 18.95 20 22.725V25C20 25.663 20.2634 26.2989 20.7322 26.7678C21.2011 27.2366 21.837 27.5 22.5 27.5C23.163 27.5 23.7989 27.2366 24.2678 26.7678C24.7366 26.2989 25 25.663 25 25Z" stroke="black" stroke-width="2" stroke-linecap="round" stroke-linejoin="round"/>
<path d="M20 21.25H25" stroke="black" stroke-width="2" stroke-linecap="round" stroke-linejoin="round"/>
<path d="M5 16.25H10" stroke="black" stroke-width="2" stroke-linecap="round" stroke-linejoin="round"/>
</svg>
