<svg xmlns="http://www.w3.org/2000/svg" xmlns:xlink="http://www.w3.org/1999/xlink" width="885" zoomAndPan="magnify" viewBox="0 0 663.75 368.250002" height="491" preserveAspectRatio="xMidYMid meet" version="1.0"><defs><g/><clipPath id="2b5d64eb7a"><rect x="0" width="593" y="0" height="118"/></clipPath><clipPath id="826c9c474f"><rect x="0" width="623" y="0" height="119"/></clipPath></defs><path fill="#000000" d="M 514.941406 78.300781 L 526.871094 101 C 526.871094 101 512.921875 89.84375 508.691406 84.070312 C 505.417969 79.644531 501.089844 74.355469 496.089844 71.949219 C 494.644531 72.625 493.394531 73.203125 492.914062 73.488281 C 475.601562 85.898438 470.984375 86.957031 455.015625 72.914062 C 450.011719 68.488281 447.222656 61.082031 435.199219 54.925781 C 434.238281 54.445312 431.160156 53.289062 428.082031 52.328125 C 430.101562 55.695312 433.082031 59.542969 436.546875 62.234375 C 430.96875 60.984375 426.351562 58.386719 422.597656 54.925781 C 421.15625 53.578125 419.90625 52.710938 418.945312 52.039062 C 417.5 53.578125 416.152344 56.175781 414.808594 57.425781 C 413.84375 58.292969 413.074219 59.253906 412.304688 60.214844 C 410.382812 61.5625 408.074219 63.199219 406.4375 64.351562 C 403.070312 66.851562 383.257812 64.640625 385.660156 68.199219 C 388.164062 71.757812 392.875 81.667969 399.800781 89.074219 C 400.667969 89.9375 408.363281 98.019531 422.792969 107.542969 C 410.671875 105.039062 402.015625 101.480469 394.703125 94.460938 C 388.835938 88.785156 384.121094 82.148438 379.023438 75.796875 C 367.097656 60.890625 355.363281 42.515625 340.066406 31.164062 C 337.664062 35.976562 349.6875 58.773438 347.28125 63.582031 C 342.472656 58.773438 321.695312 33.378906 318.710938 27.222656 C 310.441406 41.652344 297.839844 57.042969 286.105469 68.679688 C 281.773438 73.007812 263.5 106.292969 258.6875 110.234375 C 256.863281 108.3125 269.558594 76.855469 267.730469 74.933594 C 263.019531 70.125 259.941406 70.507812 255.226562 65.699219 C 245.511719 51.558594 235.988281 65.3125 231.660156 69.738281 C 183.757812 118.796875 192.894531 114.179688 186.449219 128.125 C 185.679688 129.859375 182.792969 127.839844 182.792969 125.914062 C 182.699219 114.273438 179.714844 102.636719 174.234375 92.441406 C 169.230469 89.265625 167.691406 80.414062 162.980469 78.011719 C 152.589844 86.378906 134.988281 104.078125 138.160156 95.902344 C 139.796875 91.671875 142.777344 87.148438 146.050781 83.109375 C 140.46875 86.570312 135.082031 90.902344 131.332031 93.785156 C 127.773438 96.480469 124.597656 99.558594 121.519531 102.730469 C 101.898438 123.414062 74.867188 134.859375 48.511719 145.730469 C 45.144531 147.078125 40.914062 148.328125 38.316406 145.824219 C 48.03125 144.285156 58.035156 138.804688 71.597656 131.78125 C 87.179688 123.796875 105.554688 102.058594 119.691406 91.863281 C 130.851562 83.78125 140.757812 74.066406 149.898438 63.773438 C 156.917969 55.886719 168.367188 64.738281 174.808594 69.640625 C 181.542969 74.742188 185.199219 88.015625 189.71875 95.132812 C 203.957031 83.492188 224.15625 67.140625 238.488281 55.503906 C 240.605469 53.769531 242.914062 51.941406 245.605469 51.460938 C 248.492188 50.980469 251.28125 52.039062 253.976562 53.195312 C 261.574219 56.175781 269.078125 59.253906 276.675781 62.234375 C 296.300781 45.59375 311.402344 25.105469 324.003906 2.597656 C 332.949219 0 338.527344 8.367188 342.953125 16.542969 C 352.765625 34.628906 371.328125 45.980469 388.738281 54.636719 C 390.566406 55.503906 392.105469 57.136719 394.125 57.425781 C 398.167969 57.90625 401.820312 57.90625 405.09375 55.40625 C 410.191406 51.558594 413.652344 45.59375 420.964844 40.785156 C 427.023438 40.785156 442.125 51.078125 449.628906 57.234375 C 465.597656 70.410156 465.210938 77.050781 484.355469 66.371094 C 485.894531 65.507812 487.335938 64.542969 488.585938 63.390625 C 492.722656 59.542969 500.320312 53.867188 505.613281 54.734375 C 508.785156 55.308594 521.097656 68.585938 523.601562 70.796875 C 537.933594 83.207031 542.453125 83.976562 554.957031 98.308594 C 583.429688 131.011719 591.125 131.011719 617.675781 147.171875 C 580.546875 140.824219 551.878906 102.445312 519.847656 82.53125 C 519.269531 82.339844 517.347656 80.511719 514.941406 78.300781 Z M 514.941406 78.300781 " fill-opacity="1" fill-rule="nonzero"/><g transform="matrix(1, 0, 0, 1, 36, 142)"><g clip-path="url(#2b5d64eb7a)"><g fill="#ffffff" fill-opacity="1"><g transform="translate(1.181297, 89.443866)"><g><path d="M 20.609375 0 L 20.609375 -53.28125 L 2.40625 -53.28125 L 2.40625 -62.46875 L 50.34375 -62.46875 L 50.34375 -53.28125 L 32.046875 -53.28125 L 32.046875 0 Z M 20.609375 0 "/></g></g></g><g fill="#ffffff" fill-opacity="1"><g transform="translate(53.9299, 89.443866)"><g><path d="M 6.0625 0 L 6.0625 -62.46875 L 17.5 -62.46875 L 17.5 0 Z M 6.0625 0 "/></g></g></g><g fill="#ffffff" fill-opacity="1"><g transform="translate(77.492723, 89.443866)"><g><path d="M 6.0625 0 L 6.0625 -62.46875 L 19.640625 -62.46875 L 39.53125 -22.84375 L 59.171875 -62.46875 L 72.734375 -62.46875 L 72.734375 0 L 61.3125 0 L 61.3125 -43.109375 L 43.90625 -8.921875 L 34.890625 -8.921875 L 17.5 -43.109375 L 17.5 0 Z M 6.0625 0 "/></g></g></g><g fill="#ffffff" fill-opacity="1"><g transform="translate(156.303266, 89.443866)"><g/></g></g><g fill="#ffffff" fill-opacity="1"><g transform="translate(177.54551, 89.443866)"><g><path d="M 6.0625 0 L 6.0625 -62.46875 L 29.1875 -62.46875 C 34.1875 -62.46875 38.320312 -61.632812 41.59375 -59.96875 C 44.863281 -58.3125 47.300781 -56.023438 48.90625 -53.109375 C 50.507812 -50.191406 51.3125 -46.914062 51.3125 -43.28125 C 51.3125 -39.832031 50.535156 -36.664062 48.984375 -33.78125 C 47.441406 -30.894531 45.035156 -28.570312 41.765625 -26.8125 C 38.492188 -25.0625 34.300781 -24.1875 29.1875 -24.1875 L 17.5 -24.1875 L 17.5 0 Z M 17.5 -33.46875 L 28.46875 -33.46875 C 32.457031 -33.46875 35.328125 -34.34375 37.078125 -36.09375 C 38.835938 -37.851562 39.71875 -40.25 39.71875 -43.28125 C 39.71875 -46.375 38.835938 -48.796875 37.078125 -50.546875 C 35.328125 -52.304688 32.457031 -53.1875 28.46875 -53.1875 L 17.5 -53.1875 Z M 17.5 -33.46875 "/></g></g></g><g fill="#ffffff" fill-opacity="1"><g transform="translate(231.722186, 89.443866)"><g><path d="M 6.0625 0 L 6.0625 -62.46875 L 46.859375 -62.46875 L 46.859375 -53.28125 L 17.5 -53.28125 L 17.5 -36.140625 L 44.171875 -36.140625 L 44.171875 -27.21875 L 17.5 -27.21875 L 17.5 -9.1875 L 46.859375 -9.1875 L 46.859375 0 Z M 6.0625 0 "/></g></g></g><g fill="#ffffff" fill-opacity="1"><g transform="translate(283.3105, 89.443866)"><g><path d="M 2.046875 0 L 24.90625 -62.46875 L 37.75 -62.46875 L 60.59375 0 L 48.46875 0 L 43.46875 -14.453125 L 19.09375 -14.453125 L 14.015625 0 Z M 22.21875 -23.390625 L 40.34375 -23.390625 L 31.234375 -49.359375 Z M 22.21875 -23.390625 "/></g></g></g><g fill="#ffffff" fill-opacity="1"><g transform="translate(345.876986, 89.443866)"><g><path d="M 6.0625 0 L 6.0625 -62.46875 L 29 -62.46875 C 34 -62.46875 38.117188 -61.617188 41.359375 -59.921875 C 44.609375 -58.234375 47.035156 -55.945312 48.640625 -53.0625 C 50.242188 -50.175781 51.046875 -46.976562 51.046875 -43.46875 C 51.046875 -39.65625 50.050781 -36.171875 48.0625 -33.015625 C 46.070312 -29.867188 42.960938 -27.582031 38.734375 -26.15625 L 51.671875 0 L 38.5625 0 L 26.953125 -24.640625 L 17.5 -24.640625 L 17.5 0 Z M 17.5 -33.015625 L 28.296875 -33.015625 C 32.097656 -33.015625 34.890625 -33.9375 36.671875 -35.78125 C 38.460938 -37.632812 39.359375 -40.078125 39.359375 -43.109375 C 39.359375 -46.078125 38.476562 -48.453125 36.71875 -50.234375 C 34.96875 -52.023438 32.128906 -52.921875 28.203125 -52.921875 L 17.5 -52.921875 Z M 17.5 -33.015625 "/></g></g></g><g fill="#ffffff" fill-opacity="1"><g transform="translate(401.48169, 89.443866)"><g><path d="M 27.40625 1.078125 C 22.820312 1.078125 18.773438 0.289062 15.265625 -1.28125 C 11.753906 -2.863281 8.984375 -5.128906 6.953125 -8.078125 C 4.929688 -11.023438 3.894531 -14.609375 3.84375 -18.828125 L 15.890625 -18.828125 C 16.003906 -15.910156 17.054688 -13.457031 19.046875 -11.46875 C 21.046875 -9.476562 23.800781 -8.484375 27.3125 -8.484375 C 30.34375 -8.484375 32.75 -9.210938 34.53125 -10.671875 C 36.320312 -12.128906 37.21875 -14.078125 37.21875 -16.515625 C 37.21875 -19.066406 36.425781 -21.054688 34.84375 -22.484375 C 33.269531 -23.921875 31.175781 -25.082031 28.5625 -25.96875 C 25.945312 -26.863281 23.148438 -27.816406 20.171875 -28.828125 C 15.347656 -30.492188 11.671875 -32.632812 9.140625 -35.25 C 6.617188 -37.875 5.359375 -41.359375 5.359375 -45.703125 C 5.296875 -49.390625 6.171875 -52.554688 7.984375 -55.203125 C 9.796875 -57.847656 12.28125 -59.898438 15.4375 -61.359375 C 18.59375 -62.816406 22.222656 -63.546875 26.328125 -63.546875 C 30.492188 -63.546875 34.164062 -62.800781 37.34375 -61.3125 C 40.53125 -59.820312 43.03125 -57.738281 44.84375 -55.0625 C 46.65625 -52.382812 47.625 -49.203125 47.75 -45.515625 L 35.515625 -45.515625 C 35.460938 -47.710938 34.617188 -49.660156 32.984375 -51.359375 C 31.347656 -53.054688 29.070312 -53.90625 26.15625 -53.90625 C 23.65625 -53.96875 21.554688 -53.359375 19.859375 -52.078125 C 18.160156 -50.796875 17.3125 -48.9375 17.3125 -46.5 C 17.3125 -44.414062 17.960938 -42.765625 19.265625 -41.546875 C 20.578125 -40.328125 22.363281 -39.300781 24.625 -38.46875 C 26.894531 -37.632812 29.484375 -36.742188 32.390625 -35.796875 C 35.484375 -34.722656 38.3125 -33.472656 40.875 -32.046875 C 43.4375 -30.617188 45.488281 -28.726562 47.03125 -26.375 C 48.582031 -24.019531 49.359375 -21 49.359375 -17.3125 C 49.359375 -14.039062 48.523438 -11.003906 46.859375 -8.203125 C 45.191406 -5.410156 42.722656 -3.164062 39.453125 -1.46875 C 36.179688 0.226562 32.164062 1.078125 27.40625 1.078125 Z M 27.40625 1.078125 "/></g></g></g><g fill="#ffffff" fill-opacity="1"><g transform="translate(454.765814, 89.443866)"><g><path d="M 35.34375 1.078125 C 29.09375 1.078125 23.628906 -0.289062 18.953125 -3.03125 C 14.285156 -5.769531 10.628906 -9.5625 7.984375 -14.40625 C 5.335938 -19.257812 4.015625 -24.867188 4.015625 -31.234375 C 4.015625 -37.597656 5.335938 -43.203125 7.984375 -48.046875 C 10.628906 -52.898438 14.285156 -56.695312 18.953125 -59.4375 C 23.628906 -62.175781 29.09375 -63.546875 35.34375 -63.546875 C 41.53125 -63.546875 46.972656 -62.175781 51.671875 -59.4375 C 56.367188 -56.695312 60.023438 -52.898438 62.640625 -48.046875 C 65.265625 -43.203125 66.578125 -37.597656 66.578125 -31.234375 C 66.578125 -24.867188 65.265625 -19.257812 62.640625 -14.40625 C 60.023438 -9.5625 56.367188 -5.769531 51.671875 -3.03125 C 46.972656 -0.289062 41.53125 1.078125 35.34375 1.078125 Z M 35.34375 -9.1875 C 41.289062 -9.1875 46.035156 -11.148438 49.578125 -15.078125 C 53.117188 -19.003906 54.890625 -24.390625 54.890625 -31.234375 C 54.890625 -38.078125 53.117188 -43.460938 49.578125 -47.390625 C 46.035156 -51.316406 41.289062 -53.28125 35.34375 -53.28125 C 29.394531 -53.28125 24.632812 -51.316406 21.0625 -47.390625 C 17.488281 -43.460938 15.703125 -38.078125 15.703125 -31.234375 C 15.703125 -24.390625 17.488281 -19.003906 21.0625 -15.078125 C 24.632812 -11.148438 29.394531 -9.1875 35.34375 -9.1875 Z M 35.34375 -9.1875 "/></g></g></g><g fill="#ffffff" fill-opacity="1"><g transform="translate(525.365079, 89.443866)"><g><path d="M 6.0625 0 L 6.0625 -62.46875 L 17.5 -62.46875 L 46.859375 -18.46875 L 46.859375 -62.46875 L 58.28125 -62.46875 L 58.28125 0 L 46.859375 0 L 17.5 -43.90625 L 17.5 0 Z M 6.0625 0 "/></g></g></g></g></g><g transform="matrix(1, 0, 0, 1, 20, 235)"><g clip-path="url(#826c9c474f)"><g fill="#ffffff" fill-opacity="1"><g transform="translate(0.587277, 89.996472)"><g><path d="M 34.359375 1.078125 C 28.054688 1.078125 22.640625 -0.273438 18.109375 -2.984375 C 13.585938 -5.691406 10.109375 -9.46875 7.671875 -14.3125 C 5.234375 -19.164062 4.015625 -24.773438 4.015625 -31.140625 C 4.015625 -37.515625 5.234375 -43.140625 7.671875 -48.015625 C 10.109375 -52.890625 13.585938 -56.695312 18.109375 -59.4375 C 22.640625 -62.175781 28.054688 -63.546875 34.359375 -63.546875 C 41.859375 -63.546875 48 -61.6875 52.78125 -57.96875 C 57.570312 -54.25 60.566406 -49.023438 61.765625 -42.296875 L 49.171875 -42.296875 C 48.398438 -45.691406 46.75 -48.351562 44.21875 -50.28125 C 41.695312 -52.21875 38.351562 -53.1875 34.1875 -53.1875 C 28.414062 -53.1875 23.890625 -51.222656 20.609375 -47.296875 C 17.335938 -43.367188 15.703125 -37.984375 15.703125 -31.140625 C 15.703125 -24.304688 17.335938 -18.9375 20.609375 -15.03125 C 23.890625 -11.132812 28.414062 -9.1875 34.1875 -9.1875 C 38.351562 -9.1875 41.695312 -10.09375 44.21875 -11.90625 C 46.75 -13.726562 48.398438 -16.242188 49.171875 -19.453125 L 61.765625 -19.453125 C 60.566406 -13.023438 57.570312 -7.992188 52.78125 -4.359375 C 48 -0.734375 41.859375 1.078125 34.359375 1.078125 Z M 34.359375 1.078125 "/></g></g></g><g fill="#ffffff" fill-opacity="1"><g transform="translate(66.366848, 89.996472)"><g><path d="M 35.34375 1.078125 C 29.09375 1.078125 23.628906 -0.289062 18.953125 -3.03125 C 14.285156 -5.769531 10.628906 -9.5625 7.984375 -14.40625 C 5.335938 -19.257812 4.015625 -24.867188 4.015625 -31.234375 C 4.015625 -37.597656 5.335938 -43.203125 7.984375 -48.046875 C 10.628906 -52.898438 14.285156 -56.695312 18.953125 -59.4375 C 23.628906 -62.175781 29.09375 -63.546875 35.34375 -63.546875 C 41.53125 -63.546875 46.972656 -62.175781 51.671875 -59.4375 C 56.367188 -56.695312 60.023438 -52.898438 62.640625 -48.046875 C 65.265625 -43.203125 66.578125 -37.597656 66.578125 -31.234375 C 66.578125 -24.867188 65.265625 -19.257812 62.640625 -14.40625 C 60.023438 -9.5625 56.367188 -5.769531 51.671875 -3.03125 C 46.972656 -0.289062 41.53125 1.078125 35.34375 1.078125 Z M 35.34375 -9.1875 C 41.289062 -9.1875 46.035156 -11.148438 49.578125 -15.078125 C 53.117188 -19.003906 54.890625 -24.390625 54.890625 -31.234375 C 54.890625 -38.078125 53.117188 -43.460938 49.578125 -47.390625 C 46.035156 -51.316406 41.289062 -53.28125 35.34375 -53.28125 C 29.394531 -53.28125 24.632812 -51.316406 21.0625 -47.390625 C 17.488281 -43.460938 15.703125 -38.078125 15.703125 -31.234375 C 15.703125 -24.390625 17.488281 -19.003906 21.0625 -15.078125 C 24.632812 -11.148438 29.394531 -9.1875 35.34375 -9.1875 Z M 35.34375 -9.1875 "/></g></g></g><g fill="#ffffff" fill-opacity="1"><g transform="translate(136.966114, 89.996472)"><g><path d="M 30.171875 1.078125 C 25.585938 1.078125 21.453125 0.171875 17.765625 -1.640625 C 14.078125 -3.460938 11.144531 -6.21875 8.96875 -9.90625 C 6.800781 -13.59375 5.71875 -18.265625 5.71875 -23.921875 L 5.71875 -62.46875 L 17.140625 -62.46875 L 17.140625 -23.828125 C 17.140625 -18.953125 18.3125 -15.320312 20.65625 -12.9375 C 23.007812 -10.5625 26.269531 -9.375 30.4375 -9.375 C 34.539062 -9.375 37.78125 -10.5625 40.15625 -12.9375 C 42.539062 -15.320312 43.734375 -18.953125 43.734375 -23.828125 L 43.734375 -62.46875 L 55.15625 -62.46875 L 55.15625 -23.921875 C 55.15625 -18.265625 54.023438 -13.59375 51.765625 -9.90625 C 49.503906 -6.21875 46.484375 -3.460938 42.703125 -1.640625 C 38.921875 0.171875 34.742188 1.078125 30.171875 1.078125 Z M 30.171875 1.078125 "/></g></g></g><g fill="#ffffff" fill-opacity="1"><g transform="translate(197.747499, 89.996472)"><g><path d="M 6.0625 0 L 6.0625 -62.46875 L 17.5 -62.46875 L 46.859375 -18.46875 L 46.859375 -62.46875 L 58.28125 -62.46875 L 58.28125 0 L 46.859375 0 L 17.5 -43.90625 L 17.5 0 Z M 6.0625 0 "/></g></g></g><g fill="#ffffff" fill-opacity="1"><g transform="translate(262.099042, 89.996472)"><g><path d="M 27.40625 1.078125 C 22.820312 1.078125 18.773438 0.289062 15.265625 -1.28125 C 11.753906 -2.863281 8.984375 -5.128906 6.953125 -8.078125 C 4.929688 -11.023438 3.894531 -14.609375 3.84375 -18.828125 L 15.890625 -18.828125 C 16.003906 -15.910156 17.054688 -13.457031 19.046875 -11.46875 C 21.046875 -9.476562 23.800781 -8.484375 27.3125 -8.484375 C 30.34375 -8.484375 32.75 -9.210938 34.53125 -10.671875 C 36.320312 -12.128906 37.21875 -14.078125 37.21875 -16.515625 C 37.21875 -19.066406 36.425781 -21.054688 34.84375 -22.484375 C 33.269531 -23.921875 31.175781 -25.082031 28.5625 -25.96875 C 25.945312 -26.863281 23.148438 -27.816406 20.171875 -28.828125 C 15.347656 -30.492188 11.671875 -32.632812 9.140625 -35.25 C 6.617188 -37.875 5.359375 -41.359375 5.359375 -45.703125 C 5.296875 -49.390625 6.171875 -52.554688 7.984375 -55.203125 C 9.796875 -57.847656 12.28125 -59.898438 15.4375 -61.359375 C 18.59375 -62.816406 22.222656 -63.546875 26.328125 -63.546875 C 30.492188 -63.546875 34.164062 -62.800781 37.34375 -61.3125 C 40.53125 -59.820312 43.03125 -57.738281 44.84375 -55.0625 C 46.65625 -52.382812 47.625 -49.203125 47.75 -45.515625 L 35.515625 -45.515625 C 35.460938 -47.710938 34.617188 -49.660156 32.984375 -51.359375 C 31.347656 -53.054688 29.070312 -53.90625 26.15625 -53.90625 C 23.65625 -53.96875 21.554688 -53.359375 19.859375 -52.078125 C 18.160156 -50.796875 17.3125 -48.9375 17.3125 -46.5 C 17.3125 -44.414062 17.960938 -42.765625 19.265625 -41.546875 C 20.578125 -40.328125 22.363281 -39.300781 24.625 -38.46875 C 26.894531 -37.632812 29.484375 -36.742188 32.390625 -35.796875 C 35.484375 -34.722656 38.3125 -33.472656 40.875 -32.046875 C 43.4375 -30.617188 45.488281 -28.726562 47.03125 -26.375 C 48.582031 -24.019531 49.359375 -21 49.359375 -17.3125 C 49.359375 -14.039062 48.523438 -11.003906 46.859375 -8.203125 C 45.191406 -5.410156 42.722656 -3.164062 39.453125 -1.46875 C 36.179688 0.226562 32.164062 1.078125 27.40625 1.078125 Z M 27.40625 1.078125 "/></g></g></g><g fill="#ffffff" fill-opacity="1"><g transform="translate(315.383166, 89.996472)"><g><path d="M 6.0625 0 L 6.0625 -62.46875 L 46.859375 -62.46875 L 46.859375 -53.28125 L 17.5 -53.28125 L 17.5 -36.140625 L 44.171875 -36.140625 L 44.171875 -27.21875 L 17.5 -27.21875 L 17.5 -9.1875 L 46.859375 -9.1875 L 46.859375 0 Z M 6.0625 0 "/></g></g></g><g fill="#ffffff" fill-opacity="1"><g transform="translate(366.97148, 89.996472)"><g><path d="M 6.0625 0 L 6.0625 -62.46875 L 17.5 -62.46875 L 17.5 -8.921875 L 45.15625 -8.921875 L 45.15625 0 Z M 6.0625 0 "/></g></g></g><g fill="#ffffff" fill-opacity="1"><g transform="translate(416.149966, 89.996472)"><g><path d="M 6.0625 0 L 6.0625 -62.46875 L 17.5 -62.46875 L 17.5 -8.921875 L 45.15625 -8.921875 L 45.15625 0 Z M 6.0625 0 "/></g></g></g><g fill="#ffffff" fill-opacity="1"><g transform="translate(465.328453, 89.996472)"><g><path d="M 6.0625 0 L 6.0625 -62.46875 L 17.5 -62.46875 L 17.5 0 Z M 6.0625 0 "/></g></g></g><g fill="#ffffff" fill-opacity="1"><g transform="translate(488.891276, 89.996472)"><g><path d="M 6.0625 0 L 6.0625 -62.46875 L 17.5 -62.46875 L 46.859375 -18.46875 L 46.859375 -62.46875 L 58.28125 -62.46875 L 58.28125 0 L 46.859375 0 L 17.5 -43.90625 L 17.5 0 Z M 6.0625 0 "/></g></g></g><g fill="#ffffff" fill-opacity="1"><g transform="translate(553.24282, 89.996472)"><g><path d="M 33.375 1.078125 C 27.488281 1.078125 22.34375 -0.257812 17.9375 -2.9375 C 13.53125 -5.625 10.109375 -9.359375 7.671875 -14.140625 C 5.234375 -18.929688 4.015625 -24.507812 4.015625 -30.875 C 4.015625 -37.300781 5.28125 -42.96875 7.8125 -47.875 C 10.34375 -52.789062 13.941406 -56.628906 18.609375 -59.390625 C 23.273438 -62.160156 28.820312 -63.546875 35.25 -63.546875 C 42.570312 -63.546875 48.640625 -61.789062 53.453125 -58.28125 C 58.273438 -54.769531 61.398438 -49.921875 62.828125 -43.734375 L 50.0625 -43.734375 C 49.113281 -46.648438 47.390625 -48.925781 44.890625 -50.5625 C 42.390625 -52.195312 39.175781 -53.015625 35.25 -53.015625 C 29 -53.015625 24.175781 -51.035156 20.78125 -47.078125 C 17.394531 -43.117188 15.703125 -37.691406 15.703125 -30.796875 C 15.703125 -23.890625 17.382812 -18.546875 20.75 -14.765625 C 24.113281 -10.992188 28.679688 -9.109375 34.453125 -9.109375 C 40.097656 -9.109375 44.363281 -10.640625 47.25 -13.703125 C 50.144531 -16.765625 51.890625 -20.796875 52.484375 -25.796875 L 36.6875 -25.796875 L 36.6875 -34.359375 L 64 -34.359375 L 64 0 L 53.453125 0 L 52.5625 -8.21875 C 50.539062 -5.238281 48.015625 -2.941406 44.984375 -1.328125 C 41.953125 0.273438 38.082031 1.078125 33.375 1.078125 Z M 33.375 1.078125 "/></g></g></g></g></g></svg>