<svg width="210" height="54" viewBox="0 0 210 54" fill="none" xmlns="http://www.w3.org/2000/svg">
<mask id="mask0_534_43" style="mask-type:luminance" maskUnits="userSpaceOnUse" x="0" y="0" width="210" height="54">
<path d="M0 0H209.333V53.2031H0V0Z" fill="white"/>
</mask>
<g mask="url(#mask0_534_43)">
<mask id="mask1_534_43" style="mask-type:luminance" maskUnits="userSpaceOnUse" x="-23" y="-18" width="267" height="212">
<path d="M243.1 -17.7302H-22.1001V193.47H243.1V-17.7302Z" fill="black" fill-opacity="0.36"/>
</mask>
<g mask="url(#mask1_534_43)">
<mask id="mask2_534_43" style="mask-type:luminance" maskUnits="userSpaceOnUse" x="0" y="-1" width="210" height="55">
<path d="M209.333 -0.130127H0V53.2032H209.333V-0.130127Z" fill="white"/>
</mask>
<g mask="url(#mask2_534_43)">
<mask id="mask3_534_43" style="mask-type:luminance" maskUnits="userSpaceOnUse" x="0" y="0" width="208" height="53">
<path d="M0.317627 0.322998H208V52.922H0.317627V0.322998Z" fill="white"/>
</mask>
<g mask="url(#mask3_534_43)">
<path d="M171.031 28.0314L175.302 36.1564C175.302 36.1564 170.307 32.1616 168.792 30.0939C167.625 28.5105 166.073 26.6147 164.281 25.7553C163.766 25.9949 163.318 26.2033 163.146 26.3074C156.948 30.7501 155.297 31.1251 149.583 26.0991C147.792 24.5158 146.792 21.8647 142.49 19.6616C142.146 19.4897 141.042 19.0783 139.943 18.7345C140.667 19.9376 141.729 21.3126 142.969 22.2814C140.974 21.8335 139.323 20.9012 137.979 19.6616C137.463 19.1824 137.016 18.8699 136.672 18.6303C136.156 19.1824 135.672 20.1095 135.187 20.5574C134.844 20.8699 134.568 21.2137 134.297 21.5574C133.604 22.0366 132.781 22.6251 132.193 23.0366C130.99 23.9324 123.896 23.1408 124.755 24.4116C125.651 25.6876 127.338 29.2345 129.818 31.8855C130.13 32.1928 132.885 35.0887 138.047 38.4949C133.708 37.5991 130.609 36.3283 127.995 33.8126C125.896 31.7814 124.208 29.4064 122.38 27.1355C118.115 21.797 113.911 15.2189 108.437 11.1564C107.578 12.8803 111.88 21.0418 111.021 22.7605C109.297 21.0418 101.859 11.9481 100.792 9.74492C97.8333 14.9116 93.3228 20.422 89.1197 24.5835C87.5728 26.1356 81.0312 38.047 79.3072 39.4585C78.6562 38.771 83.1978 27.5105 82.5468 26.823C80.8593 25.1043 79.7551 25.2397 78.0676 23.521C74.5937 18.4585 71.1822 23.3803 69.6353 24.9637C52.4895 42.5262 55.7603 40.8699 53.453 45.8647C53.177 46.4845 52.1458 45.7606 52.1458 45.0731C52.1093 40.9064 51.0416 36.7397 49.078 33.0887C47.2864 31.9533 46.7395 28.7866 45.052 27.9272C41.3333 30.922 35.0312 37.2553 36.1666 34.3283C36.7551 32.8126 37.8228 31.1981 38.9895 29.7501C36.9947 30.9897 35.0676 32.5418 33.7239 33.573C32.4478 34.5366 31.3124 35.6355 30.2135 36.7762C23.1874 44.1772 13.5103 48.2762 4.07804 52.1668C2.87492 52.646 1.35929 53.0939 0.427002 52.1981C3.90617 51.646 7.4895 49.6876 12.3437 47.172C17.9218 44.3126 24.4947 36.5314 29.5572 32.8855C33.552 29.9897 37.0989 26.5158 40.3697 22.8283C42.8801 20.0053 46.9791 23.172 49.2864 24.9324C51.6978 26.7553 53.0051 31.5053 54.6249 34.0522C59.7187 29.8855 66.9478 24.0366 72.078 19.8699C72.8385 19.2501 73.6614 18.5939 74.6249 18.422C75.6614 18.2501 76.6562 18.6303 77.6197 19.0418C80.3437 20.1095 83.026 21.2137 85.7499 22.2814C92.7708 16.323 98.177 8.98972 102.687 0.932424C105.891 0.000132538 107.885 3.00013 109.469 5.92201C112.984 12.396 119.625 16.4585 125.859 19.5574C126.516 19.8699 127.062 20.4533 127.786 20.5574C129.234 20.7293 130.542 20.7293 131.713 19.8335C133.536 18.4585 134.776 16.323 137.396 14.5991C139.562 14.5991 144.969 18.2866 147.656 20.4897C153.37 25.2033 153.229 27.5835 160.083 23.7605C160.635 23.448 161.151 23.1043 161.599 22.6928C163.078 21.3126 165.797 19.2814 167.693 19.5939C168.828 19.8022 173.234 24.5522 174.13 25.3439C179.26 29.7866 180.88 30.0626 185.354 35.1928C195.547 46.896 198.302 46.896 207.802 52.6824C194.516 50.4064 184.255 36.672 172.786 29.5418C172.583 29.4741 171.891 28.823 171.031 28.0314Z" fill="white"/>
</g>
</g>
</g>
</g>
</svg>
